<?xml version="1.0" encoding="utf-8"?>
<!-- Generator: Adobe Illustrator 27.1.1, SVG Export Plug-In . SVG Version: 6.00 Build 0)  -->
<svg version="1.1"
	 id="svg2" xmlns:rdf="http://www.w3.org/1999/02/22-rdf-syntax-ns#" xmlns:cc="http://creativecommons.org/ns#" xmlns:svg="http://www.w3.org/2000/svg" xmlns:dc="http://purl.org/dc/elements/1.1/"
	 xmlns="http://www.w3.org/2000/svg" xmlns:xlink="http://www.w3.org/1999/xlink" x="0px" y="0px" viewBox="0 0 2713.8 864.5"
	 style="enable-background:new 0 0 2713.8 864.5;" xml:space="preserve">
<style type="text/css">
	.st0{fill:#499BCC;}
	.st1{fill:#FFFFFF;}
</style>
<g id="g10" transform="matrix(1.3333333,0,0,-1.3333333,0,864.52)">
	<g id="g12" transform="scale(0.1)">
		<path id="path14" class="st0" d="M9453.2,3552.7c771.9,1128.7,977.4,2063.2,511.9,2583c-663.8,741.2-2643.6,311-4287.4-1403.5
			c0.7-0.7,1.4-1.5,2.1-2.2c1432.9,1273.7,3271.7,1528.1,3924,918.9c527.4-492.6,235.5-1454.6-490.6-2493.3
			c3,0.1,159.9,181.1,251.4,287C9393,3480.2,9422.8,3516.7,9453.2,3552.7"/>
		<path id="path16" class="st0" d="M7098.7,1125.5C5886,377.9,4555.1,286.9,3975.3,674.6c-442.6,295.9-408.4,972.4-54.2,1750.6
			c0.4,0.8,0.6,1.4,0.9,2.2c19,51.7,205.4,508.5,288.7,693.7C3384,1952.5,3092.6,845.8,3571.8,310.8
			c567.9-634.1,2037.6-264.4,3532.4,804.4C7102.3,1118.6,7100.4,1122,7098.7,1125.5"/>
		<path id="path18" class="st1" d="M2123.1,4173.8l-704.6-1937.4h-402.2l-62.4,1285.2L483.7,2236.3H66.3L0,4173.8h391.1l2.7-1332.8
			l486.4,1332.8h374l44.2-1332.6l443.5,1332.6H2123.1"/>
		<path id="path20" class="st1" d="M2823.7,2683.9c29.9,60.7,52.4,127.1,67.7,199.1c15.3,72,22.9,159.6,22.9,262.8
			c0,89.4-14.6,158.1-43.9,206.2c-29.2,48.1-75.7,72.2-139.3,72.2c-49.4,0-92.7-16.1-130.1-48.1c-37.4-32.1-70.3-77.6-98.9-136.6
			c-26.6-54.6-47.6-122.3-62.8-203c-15.3-80.7-22.9-163.5-22.9-248.5c0-99.8,16.6-171.1,49.7-214s78.6-64.4,136.4-64.4
			c42.2,0,82.8,15.4,121.8,46.2C2763.3,2586.6,2796.4,2629.3,2823.7,2683.9L2823.7,2683.9z M3279.7,3162.8
			c0-137.1-17.2-265.4-51.6-385.1c-34.4-119.7-82.8-222.5-145.2-308.4c-65-89.4-140.3-158.1-226.1-206.2
			c-85.8-48.1-185.8-72.2-300.1-72.2c-163,0-288.1,52-375.1,156.1c-87,104.1-130.6,248.1-130.6,432c0,130.1,16.2,253.7,48.7,370.8
			s80.6,220.3,144.2,309.7c61.7,87.6,137.5,156.8,227.5,207.5s190.8,76.1,302.5,76.1c163.7,0,288.9-51.4,375.6-154.2
			C3236.3,3486.1,3279.7,3344.1,3279.7,3162.8"/>
		<path id="path22" class="st1" d="M4356.5,3251.2h-31.2c-15.6,6.9-37.6,12.1-66.2,15.6c-28.5,3.5-56.8,5.2-84.6,5.2
			c-46,0-90.5-4.6-133.3-13.7c-42.8-9.1-86.9-23.6-132.3-43.6L3739,2236.3h-353.1l253.7,1461.2h353.1l-37.3-214.7
			c66.2,65.1,132.2,118,198,158.7s132.2,61.1,199,61.1c12.3,0,26.1-0.4,41.4-1.3c15.2-0.9,28.7-2.2,40.4-3.9L4356.5,3251.2"/>
		<path id="path24" class="st1" d="M5081.3,4260.9l-350.4-2024.6h-353l350.4,2024.6H5081.3"/>
		<path id="path26" class="st1" d="M5966.8,3355.4c-18.8,12-43.5,23.1-74.1,33.1c-30.5,10-57.5,15-80.9,15
			c-55.8,0-106.1-16.5-151-49.3c-44.8-33-82.8-78-113.9-135.1c-27.9-51.2-50-116.3-66.3-195.6c-16.2-79.3-24.4-155.7-24.4-229.3
			c0-87.4,15.3-151,45.7-190.9c30.5-39.8,76.9-59.8,139.2-59.8c31.8,0,65.4,9.6,100.8,28.6c35.3,19,68.9,41.5,100.8,67.6
			L5966.8,3355.4z M6476.6,4260.9l-350.5-2024.6h-353l26.3,152.2c-33.8-28.6-63.5-54.4-89.1-77.4c-25.7-23-54.1-44-85.3-63.1
			c-29.2-17.4-58-30.4-86.2-39c-28.3-8.7-62.2-13-101.8-13c-105.9,0-190.5,46-253.8,137.9c-63.3,91.9-95,222.5-95,391.6
			c0,138.8,16.7,269.1,50.2,391c33.5,121.9,79.4,229.6,137.9,323.3c57.2,91.1,124.8,163.5,202.8,217.3
			c78,53.8,159.5,80.7,244.6,80.7c59.8,0,111.7-8,155.9-24.1s89.6-41,136.4-74.8l107.7,621.9L6476.6,4260.9"/>
		<path id="path28" class="st1" d="M7145,2198.6c-196.2,0-347.5,64.4-454,193.2s-159.8,313.4-159.8,553.6
			c0,190,23.5,362.2,70.6,516.6c47.1,154.4,111.9,288,194.4,400.8c80.5,109.3,177.2,194.7,289.9,256.3
			c112.7,61.6,231.1,92.4,355.1,92.4c100,0,192.9-13.7,278.7-41c85.7-27.3,163-67.4,231.9-120.4l-85.7-469.7h-42.9
			c-61.7,88.5-123.1,153.5-184.1,195.2s-132.8,62.4-215.3,62.4c-144.9,0-264.2-77.6-358.1-232.9
			c-93.9-155.3-140.8-353.1-140.8-593.3c0-154.4,26-266.3,78-335.7c52-69.4,128-104.1,228-104.1c89.6,0,173.8,24.1,252.4,72.2
			c78.6,48.1,153,109.5,223.1,184.1h39l-84.8-463.2c-29.2-15.6-63.3-34.5-102.3-56.6c-39-22.1-76.3-40.1-112-54
			c-46.8-18.2-90.5-32.1-131.1-41.6C7274.4,2203.4,7217.7,2198.6,7145,2198.6"/>
		<path id="path30" class="st1" d="M8682.8,2926c-62.7-6.9-121.5-15.2-176.3-24.7c-54.9-9.5-101.6-23.4-140.1-41.6
			c-39.9-19.1-70.2-46-91.1-80.7c-20.9-34.7-31.3-80.7-31.3-137.9c0-50.3,13.9-85.7,41.7-106c27.7-20.4,68-30.6,121-30.6
			c34.6,0,71.6,10.6,111.2,31.8c39.5,21.1,76.6,48.2,111.2,81.1L8682.8,2926z M8589.5,2391c-22.1-19.2-48.7-42.3-80-69.3
			c-31.2-27.1-60.1-48.5-86.7-64.2c-36.5-20.1-70.6-35.2-102.5-45.8c-31.8-10.5-76-15.7-132.6-15.7c-91,0-165.3,34.1-222.8,102.2
			c-57.6,68.2-86.3,157-86.3,266.4c0,115.6,20.5,213.5,61.3,293.8c40.9,80.3,101.6,144.4,182,192.1c75.3,45.2,165,77.8,269.2,97.7
			c104.1,20.1,216.9,34.8,338.3,44.3c0.7,5.2,2.1,13.7,4.2,25.4c2.2,11.7,3.2,24.9,3.2,39.7c0,61.6-21.4,104.7-64.3,129.5
			c-42.9,24.7-106.9,37.1-191.9,37.1c-57.8,0-121.6-13-191.5-39c-69.8-26-122.2-47.7-157.3-65.1h-32.1l51.6,346.1
			c40.9,13.9,104.3,29.5,190,46.8c85.7,17.4,171.2,26,256.2,26c171.5,0,297.3-29.9,377.6-89.8c80.2-59.9,120.3-152.7,120.3-278.4
			c0-17.4-1.1-39.9-3.4-67.7c-2.3-27.8-5.4-52.1-9.3-72.9l-171.5-994.1h-348.9L8589.5,2391"/>
		<path id="path32" class="st1" d="M10202.7,3251.2h-31.2c-15.6,6.9-37.6,12.1-66.2,15.6c-28.5,3.5-56.7,5.2-84.6,5.2
			c-46,0-90.5-4.6-133.3-13.7c-42.8-9.1-86.9-23.6-132.3-43.6l-169.9-978.5H9232l253.7,1461.2h353.1l-37.3-214.7
			c66.2,65.1,132.2,118,198,158.7c65.8,40.8,132.2,61.1,199,61.1c12.3,0,26.1-0.4,41.4-1.3c15.2-0.9,28.7-2.2,40.4-3.9
			L10202.7,3251.2"/>
		<path id="path34" class="st1" d="M11109.6,3153.7c2,15.7,3.4,30,4.4,43.2c1,13,1.5,26.6,1.5,40.4c0,68.9-16,121.6-47.9,158.2
			c-32,36.5-78,54.9-138,54.9c-72.3,0-133.1-26.1-182.3-78.4c-49.3-52.3-86.6-125-112-218.3H11109.6z M10841.2,2196
			c-186.6,0-330.6,55.1-432,165.4c-101.4,110.3-152.1,262.6-152.1,457.1c0,132.8,16.5,254.8,49.7,365.9
			c33.2,111.1,80.9,208.7,143.4,293c59.7,81.6,134.5,146.3,224.2,194c89.7,47.8,188.2,71.7,295.5,71.7
			c163.2,0,286.2-44.1,369.1-132.3c82.8-88.2,124.3-218.3,124.3-390.2c0-59.1-4.4-116.9-13.1-173.4c-8.9-56.5-20.4-112.4-34.7-168.1
			H10601c0-5.2,0-10.2,0-15c0-4.8,0-9.8,0-15c0-101.5,26.7-180.9,80.1-238.1c53.4-57.2,135.2-85.9,245.2-85.9
			c76.9,0,149.6,17.4,218.3,52.1c68.7,34.7,128.5,73.3,179.3,115.8h39.1l-65.4-376c-68.3-39.9-140.1-70.1-215.5-90.4
			C11006.7,2206.2,10926.4,2196,10841.2,2196"/>
		<path id="path36" class="st1" d="M12921,2198.6c-196.2,0-347.6,64.4-454.1,193.2s-159.8,313.4-159.8,553.6
			c0,190,23.6,362.2,70.7,516.6c47,154.4,111.8,288,194.3,400.8c80.6,109.3,177.2,194.7,289.9,256.3
			c112.7,61.6,231.1,92.4,355.2,92.4c100,0,192.9-13.7,278.6-41c85.8-27.3,163.1-67.4,231.9-120.4l-85.7-469.7h-42.9
			c-61.7,88.5-123.1,153.5-184.1,195.2c-61.1,41.6-132.9,62.4-215.4,62.4c-144.8,0-264.2-77.6-358-232.9
			c-93.9-155.3-140.8-353.1-140.8-593.3c0-154.4,25.9-266.3,77.9-335.7c52-69.4,128-104.1,228-104.1c89.6,0,173.8,24.1,252.4,72.2
			c78.6,48.1,152.9,109.5,223.1,184.1h39l-84.8-463.2c-29.2-15.6-63.3-34.5-102.3-56.6s-76.3-40.1-112.1-54
			c-46.7-18.2-90.4-32.1-131-41.6C13050.4,2203.4,12993.7,2198.6,12921,2198.6"/>
		<path id="path38" class="st1" d="M14378.6,4260.9l-350.4-2024.6h-353.1l350.5,2024.6H14378.6"/>
		<path id="path40" class="st1" d="M15071.4,4260.9l-61.4-355.2h-372.2l61.4,355.2H15071.4z M14964,3697.5l-253.7-1461.2h-353.1
			l253.7,1461.2H14964"/>
		<g id="g42" transform="scale(1.00132)">
			<path id="path44" class="st1" d="M16300,3362.6c0-26-1.3-54.1-3.9-84.5s-6.8-61.9-12.7-94.9l-163.1-949.9h-354.7l124.2,723.8
				c9.1,53.7,16.2,99.6,21.4,137.6c5.1,38.1,7.7,73.6,7.7,106.7c0,56.3-10.7,97.4-32.1,123.4c-21.4,26-60.7,39-117.8,39
				c-27.9,0-60.1-8-96.4-24c-36.4-16-77.3-40.1-122.7-72.1l-178-1034.4h-352.5l252.5,1459.3h352.4l-28.8-161.1
				c72.1,63.2,137.9,112.6,197.4,148.1c59.4,35.5,124.8,53.3,196.2,53.3c98.1,0,174.5-31.6,229-94.9
				C16272.6,3574.8,16300,3483,16300,3362.6"/>
		</g>
		<g id="g46" transform="scale(1.05368)">
			<path id="path48" class="st1" d="M16300,4043.8l-58.3-337.1h-353.2l58.3,337.1L16300,4043.8z M16198.2,3509.2l-240.9-1386.8
				h-335.1l240.8,1386.8H16198.2"/>
		</g>
		<g id="g50" transform="scale(1.12422)">
			<path id="path52" class="st1" d="M15751.4,1953.4c-66.5,0-128.8,11-186.8,33c-58.1,22-108.8,56.2-152.1,102.5
				c-42.2,45.6-75.1,102.7-98.9,171.5c-23.6,68.7-35.5,148.2-35.5,238.6c0,116.6,16.7,224.9,49.8,324.9
				c33.3,100,79.9,187.4,140.1,262.3c58.8,73.3,130.8,131.5,215.8,174.3c84.9,42.9,176.8,64.3,275.5,64.3
				c59.5,0,118.7-8.9,177.3-26.6s113.1-43.6,163.4-77.5l-65.9-355.3h-44.2c-34.1,54.8-72.7,95.5-115.7,122.1
				c-43.1,26.6-91.5,39.9-145.2,39.9c-98.2,0-177.1-46.6-236.6-139.7c-59.5-93.2-89.2-209.2-89.2-348.4
				c0-96.6,18.3-168.8,54.9-216.7c36.8-47.9,93.8-71.9,171.3-71.9c60,0,114.8,16.4,164.2,49.2c49.4,32.8,91.7,69.2,127,109.4h44.2
				l-65.9-355.3c-62.5-36.3-117.2-62.1-164.2-77.5C15887.5,1961.1,15826.4,1953.4,15751.4,1953.4"/>
		</g>
		<g id="g54" transform="scale(1.19715)">
			<path id="path56" class="st1" d="M15955.2,2444.1c-52.4-5.8-101.5-12.7-147.3-20.6c-45.8-8-84.9-19.6-117-34.8
				c-33.3-15.9-58.7-38.4-76.1-67.4c-17.4-29-26.2-67.4-26.2-115.2c0-42,11.7-71.6,34.8-88.6c23.1-17,56.9-25.5,101.1-25.5
				c28.9,0,59.8,8.9,92.9,26.5c32.9,17.7,63.9,40.3,92.8,67.8L15955.2,2444.1z M15877.2,1997.2c-18.4-16-40.6-35.3-66.8-57.9
				c-26-22.6-50.2-40.5-72.4-53.6c-30.5-16.8-59-29.4-85.6-38.2c-26.6-8.8-63.5-13.1-110.8-13.1c-76,0-138.1,28.4-186.1,85.4
				c-48.1,57-72.1,131.2-72.1,222.5c0,96.5,17.1,178.3,51.2,245.4c34.2,67.1,84.9,120.6,152.1,160.5
				c62.9,37.8,137.8,64.9,224.8,81.6c87,16.8,181.2,29.1,282.6,37c0.5,4.4,1.8,11.4,3.5,21.2c1.9,9.8,2.7,20.8,2.7,33.1
				c0,51.4-17.9,87.5-53.7,108.1c-35.8,20.6-89.2,31-160.2,31c-48.3,0-101.7-10.9-160-32.6c-58.2-21.7-102.1-39.8-131.4-54.3h-26.8
				l43.1,289.1c34.2,11.6,87.1,24.6,158.7,39.1c71.7,14.5,143,21.7,214.1,21.7c143.3,0,248.3-25,315.3-75
				c67.1-50,100.6-127.5,100.6-232.6c0-14.5-1-33.3-2.8-56.5c-2-23.2-4.6-43.5-7.8-60.9l-143.3-830.4h-291.4L15877.2,1997.2"/>
		</g>
		<g id="g58" transform="scale(1.24865)">
			<path id="path60" class="st1" d="M16300.3,3412.4L16019.6,1791h-282.7l280.6,1621.4H16300.3"/>
		</g>
	</g>
</g>
</svg>
