<?xml version="1.0" encoding="utf-8"?>
<!-- Generator: Adobe Illustrator 27.1.1, SVG Export Plug-In . SVG Version: 6.00 Build 0)  -->
<svg version="1.1"
	 id="svg2" xmlns:rdf="http://www.w3.org/1999/02/22-rdf-syntax-ns#" xmlns:cc="http://creativecommons.org/ns#" xmlns:svg="http://www.w3.org/2000/svg" xmlns:dc="http://purl.org/dc/elements/1.1/"
	 xmlns="http://www.w3.org/2000/svg" xmlns:xlink="http://www.w3.org/1999/xlink" x="0px" y="0px" viewBox="0 0 930 870"
	 style="enable-background:new 0 0 930 870;" xml:space="preserve">
<style type="text/css">
	.st0{fill:#499BCC;}
	.st1{fill:#FFFFFF;}
</style>
<g id="g10" transform="matrix(1.3333333,0,0,-1.3333333,0,864.52)">
	<g id="g12" transform="scale(0.1)">
		<path id="path14" class="st0" d="M6146.5,3539.6c771.9,1128.7,977.4,2063.2,511.9,2583c-663.8,741.2-2643.6,311-4287.4-1403.5
			c0.7-0.7,1.4-1.5,2.1-2.2C3806,5990.6,5644.8,6245,6297.1,5635.8c527.4-492.6,235.5-1454.6-490.6-2493.3
			c3,0.1,159.9,181.1,251.4,287C6086.3,3467.1,6116.1,3503.6,6146.5,3539.6"/>
		<path id="path16" class="st0" d="M3792,1112.4C2579.2,364.8,1248.3,273.8,668.5,661.5c-442.6,295.9-408.4,972.4-54.2,1750.6
			c0.4,0.8,0.6,1.4,0.9,2.2c19,51.7,205.4,508.5,288.7,693.7C77.2,1939.4-214.2,832.7,265,297.7
			c567.9-634.1,2037.6-264.4,3532.4,804.4C3795.6,1105.5,3793.7,1108.9,3792,1112.4"/>
		<path id="path18" class="st1" d="M3031.3,4160.7l-704.6-1937.4h-402.2l-62.4,1285.2L1392,2223.3H974.6l-66.4,1937.4h391.1
			l2.7-1332.8l486.4,1332.8h374l44.2-1332.6l443.5,1332.6H3031.3"/>
		<path id="path28" class="st1" d="M3658.3,2185.5c-196.2,0-347.5,64.4-454,193.2s-159.8,313.4-159.8,553.6
			c0,190,23.5,362.2,70.6,516.6c47.1,154.4,111.9,288,194.4,400.8c80.5,109.3,177.2,194.7,289.9,256.3
			c112.7,61.6,231.1,92.4,355.1,92.4c100,0,192.9-13.7,278.7-41c85.7-27.3,163-67.4,231.9-120.4l-85.7-469.7h-42.9
			c-61.7,88.5-123.1,153.5-184.2,195.2c-61.1,41.6-132.8,62.4-215.3,62.4c-144.8,0-264.2-77.6-358.1-232.9
			c-93.9-155.3-140.8-353.1-140.8-593.3c0-154.4,26-266.3,78-335.7s128-104.1,228-104.1c89.6,0,173.8,24.1,252.4,72.2
			c78.6,48.1,153,109.5,223.1,184.1h39l-84.8-463.2c-29.2-15.6-63.3-34.5-102.3-56.6c-39-22.1-76.3-40.1-112-54
			c-46.8-18.2-90.5-32.1-131.1-41.6C3787.7,2190.3,3731,2185.5,3658.3,2185.5"/>
		<path id="path28_00000177466053864461784900000001730707204695619263_" class="st1" d="M5158.3,2185.5
			c-196.2,0-347.5,64.4-454,193.2s-159.8,313.4-159.8,553.6c0,190,23.5,362.2,70.6,516.6c47.1,154.4,111.9,288,194.4,400.8
			c80.5,109.3,177.2,194.7,289.9,256.3c112.7,61.6,231.1,92.4,355.2,92.4c100,0,192.9-13.7,278.7-41c85.7-27.3,163-67.4,231.9-120.4
			l-85.7-469.7h-42.9c-61.7,88.5-123.1,153.5-184.1,195.2c-61.1,41.6-132.8,62.4-215.3,62.4c-144.9,0-264.2-77.6-358.1-232.9
			c-93.9-155.3-140.8-353.1-140.8-593.3c0-154.4,26-266.3,78-335.7s128-104.1,228-104.1c89.6,0,173.8,24.1,252.4,72.2
			c78.6,48.1,153,109.5,223.1,184.1h39L5674,2352c-29.2-15.6-63.3-34.5-102.3-56.6s-76.3-40.1-112-54
			c-46.8-18.2-90.5-32.1-131.1-41.6C5287.7,2190.3,5231,2185.5,5158.3,2185.5"/>
	</g>
</g>
</svg>
