<?xml version="1.0" encoding="UTF-8"?>
<svg id="Layer_1" data-name="Layer 1" xmlns="http://www.w3.org/2000/svg" viewBox="0 0 492.27 483.33">
  <defs>
    <style>
      .cls-1 {
        fill: #6f728d;
      }
    </style>
  </defs>
  <path class="cls-1" d="m397.27,483.33c14.1,0,24.26-3.38,24.26-13.54v-47.52c0-30.53-36.67-21.44-36.67-5.08s-6.21,18.13-17.49,18.13h-106.85c-18.62,0-29.34-6.85-29.34-31.67v-151.19c0-12.98,9.03-11.28,15.23-11.28h67.36c17.61,0,22.03-38.36,1.13-38.36h-108.88c-24.82,0-28.49,14.1-28.49,28.49v221.56c0,20.31,7.05,30.46,21.72,30.46h198.02Z"/>
  <path class="cls-1" d="m390.5,139.07c0,28.18,48.27,34.41,48.27,0V61.49c0-43.44-24.26-61.49-72.78-61.49H76.73C9.03,0,0,24.82,0,52.47v299.71c0,51.34,32.16,65.52,56.42,65.52h89.24c28.21,0,34.98-48.46-3.38-48.46h-72.78c-24.26,0-21.44-16.92-21.44-24.26V91.11c0-28.21,15.8-43.44,51.06-43.44h231.59c42.88,0,58.11,15.23,58.11,42.88s1.69,48.52,1.69,48.52Z"/>
  <polygon class="cls-1" points="148.73 30.75 100.52 37.49 100.52 388.4 148.73 381.65 148.73 30.75"/>
  <rect class="cls-1" x="40.16" y="86.6" width="358.24" height="46.71"/>
  <rect class="cls-1" x="32.82" y="234.62" width="85.19" height="47.75"/>
  <path class="cls-1" d="m438.89,217.76c-14.36-13.88-22.06-23.16-45.05-46.39-10.99-11.11-36.28-39.78-36.75-19.67-.48,20.11,0,65.91,0,71.65s-1.89,9.52-7.15,9.52c0,0-71.54,13.73-88.96,102.83-4.4,22.51-3.91,68.49.13,79.52,4.93,13.47,6.94,24.65,20.82,1.68,16.01-26.49,19.3-38.78,35.07-61.42,7.86-11.29,24.98-24.96,32.94-24.86,3.09.04,7.47,1.45,7.15,8.38-.42,9.09,0,44.4,0,53.97s3.05,30.64,15.03,18.68c20.84-20.81,65.7-67.87,79.22-81.39,11.1-11.1,40.93-44.52,40.93-47.87,0-5.5-39.01-50.74-53.38-64.63Zm-7.66,84.97c-7.76,8.72-17.65,20.15-33.14,35.63-20.54,20.54-17.29,19.96-17.29-3.56,0-7.12-.31-30.18,0-36.94.24-5.15-2.33-6.2-4.63-6.23-5.92-.08-30.4,4.39-48.83,18.99-17.58,13.93-25.44,26.28-36.34,46.55-11.97,22.26-11.6,16.56-10.05,10.05,12.45-52.42,12.65-52.06,24.85-70.01,23.71-34.87,70.37-37.86,70.37-37.86,3.92,0,4.63-4.63,4.63-8.9v-47.46c0-6.07,1.76-4.48,9.97,3.74,10.17,10.17,21.4,24.62,32.07,34.95,10.68,10.32,28.96,34.23,28.96,36.14s-13.31,16.72-20.58,24.89Z"/>
</svg>