<?xml version="1.0" encoding="UTF-8"?>
<svg id="Layer_1" data-name="Layer 1" xmlns="http://www.w3.org/2000/svg" viewBox="0 0 495.69 488.66">
  <defs>
    <style>
      .cls-1 {
        fill: #6f728d;
      }
    </style>
  </defs>
  <path class="cls-1" d="m247.84,0c9.03,0,29.33,6.03,40.89,18.31,94.63,100.55,136.48,145.3,172.29,183.35,36.71,39.01,54.07,77.45,1.86,77.45h-29.92c-15.4,0-15.4.23-15.4,15.76v168.16c0,25.66-.53,25.63-25.45,25.63h-89.22c-17.16,0-17.95.03-17.95-23.66v-122.4c0-5.83,2.05-17.78-15.9-17.78h-21.19v-47.6h65.72c13.25,0,15.9,5.39,15.9,15.77,0,43.37,0,98.21,0,134.54,0,12.11,1.06,13.52,11.66,13.52h23.49c8.94,0,8.41-10.81,8.41-14.65v-170.97c0-23.64.27-23.64,16.96-23.64h18.06c14.28,0,18.39,2.68-1.36-18.31-15.65-16.63-111.63-114.67-147.64-152.93-3.58-3.8-6.98-7.89-11.21-7.89"/>
  <path class="cls-1" d="m247.84,0c-9.03,0-29.33,6.03-40.89,18.31C112.32,118.86,70.47,163.61,34.66,201.66c-36.71,39.01-54.07,77.45-1.86,77.45,7.55,0,16.94,0,29.92,0,15.4,0,15.4.23,15.4,15.76,0,44.22,0,96.72,0,168.16,0,25.66.53,25.63,25.45,25.63,22,0,63.7,0,89.22,0,17.16,0,17.95.03,17.95-23.66,0-42.81,0-78.78,0-122.4,0-5.83-2.05-17.78,15.9-17.78,15.37,0,21.19,0,21.19,0,0-6.76,0-47.6,0-47.6-10.15,0-43.92,0-65.72,0-13.25,0-15.9,5.39-15.9,15.77,0,43.37,0,98.21,0,134.54,0,12.11-1.06,13.52-11.66,13.52-12.72,0-12.64,0-23.49,0-8.94,0-8.41-10.81-8.41-14.65,0-39.15,0-123.42,0-170.97,0-23.64-.27-23.64-16.96-23.64-7.87,0-12.84,0-18.06,0-14.28,0-18.39,2.68,1.36-18.31,15.65-16.63,111.63-114.67,147.64-152.93,3.58-3.8,6.98-7.89,11.21-7.89"/>
</svg>