<?xml version="1.0" encoding="UTF-8"?>
<svg id="Layer_1" data-name="Layer 1" xmlns="http://www.w3.org/2000/svg" viewBox="0 0 500 488.05">
  <defs>
    <style>
      .cls-1 {
        fill: #6f728d;
      }
    </style>
  </defs>
  <path class="cls-1" d="m296.8,117.61c-25.39,0-23.28-44.83,0-44.83h183.1c12.7,0,20.1,7.41,20.1,17.99v383.52c0,14.81-10.58,13.75-17.99,13.75s-384.11.02-397.87.02-14.81-4.25-14.81-16.94v-170.33c0-26.85,41.26-26.45,41.26,0v107.91c0,11.64,11.64,15.87,17.99,15.87h312.1c12.7,0,17.06-5.29,17.06-13.75V131.37c0-12.17-1.19-13.75-11.77-13.75h-149.17Z"/>
  <path class="cls-1" d="m274.19,113.07c-95-94.31,9.82,9.75-103.95-103.2-3.44-3.41-12.12-9.87-19.66-9.87s-16.22,6.46-19.66,9.87c-113.77,112.95-8.95,8.88-103.95,103.2-29.27,29.05-40.25,75.21-4.54,75.21h53.74c13.09,0,11.31,6.35,11.31,11.31v49.35c0,11.11,7.74,19.44,22.42,19.44h81.37c14.68,0,22.42-8.33,22.42-19.44v-49.35c0-4.96-1.79-11.31,11.31-11.31h49.2c35.71,0,29.27-46.15,0-75.21Zm-42.61,33.68h-32.48c-5.26,0-17.95,4.93-17.95,19.7v49.38c0,5.15-2.98,10.97-9.72,10.97h-41.7c-6.74,0-9.72-5.82-9.72-10.97v-49.38c0-14.78-12.69-19.7-17.95-19.7h-32.48c-21.49,0-22.02-.05,3.94-26.27,16.75-16.92,45.75-44.32,54.22-52.59,10.71-10.45,17.28-19.91,22.83-19.91s12.12,9.47,22.83,19.91c8.47,8.27,41.69,39.78,54.22,52.59,25.8,26.37,25.44,26.27,3.94,26.27Z"/>
  <path class="cls-1" d="m429.04,288.6c-8.52-3.27-30.41-16.34-44.4-28.34-9.94-8.53-40.15-23.98-70.56-23.98s-60.62,15.45-70.56,23.98c-13.99,12-35.89,25.07-44.4,28.34-8.52,3.27-38.93,31.79-17.64,51.96,21.29,20.17,40.15,41.97,75.42,56.14,35.28,14.17,50.49,14.79,57.18,14.79s21.9-.62,57.18-14.79c35.28-14.17,54.14-35.97,75.42-56.14,21.29-20.17-9.12-48.69-17.64-51.96Zm-31.02,61.41c-36.5,26.16-69.95,29.98-83.94,30.52-13.99-.55-47.44-4.36-83.94-30.52-36.5-26.16-26.92-30.46-17.19-35.36,0,0,40.03-21.21,49.15-29.93,9.12-8.72,36.16-16.43,51.98-17.93,15.82,1.5,42.85,9.21,51.98,17.93,9.12,8.72,49.15,29.93,49.15,29.93,9.73,4.91,19.31,9.2-17.19,35.36Z"/>
  <path class="cls-1" d="m314.08,255.08c-32.32,0-58.52,26.2-58.52,58.52s26.2,58.52,58.52,58.52,58.52-26.2,58.52-58.52-26.2-58.52-58.52-58.52Zm0,81.53c-12.71,0-23.01-10.3-23.01-23.01s10.3-23.01,23.01-23.01,23.01,10.3,23.01,23.01-10.3,23.01-23.01,23.01Z"/>
</svg>