<?xml version="1.0" encoding="UTF-8"?>
<svg id="Layer_1" data-name="Layer 1" xmlns="http://www.w3.org/2000/svg" viewBox="0 0 496.36 496.36">
  <defs>
    <style>
      .cls-1 {
        fill: #fff;
      }

      .cls-2 {
        fill: #0a3d69;
      }
    </style>
  </defs>
  <circle class="cls-1" cx="248.18" cy="248.18" r="248.18" transform="translate(-102.8 248.18) rotate(-45)"/>
  <path class="cls-2" d="m227.17,249.92c42.37-29.34,89.06-62.48,96.92-66.9,7.86-4.42,8.94-15.47,5.01-19.89-3.93-4.42-18.77-21.73-22.71-23.2-3.93-1.47-6.09-6.81-21.82,4.97-15.73,11.78-111.69,81.38-119.72,87.83-16.51,13.26-21.72,27.34-6.78,40.6,14.94,13.26,126.8,90.96,136.24,96.12,9.44,5.16,10.71,6.63,20.94,0,10.22-6.63,11.94-9.3,18.28-16.85,10.91-12.98-4.82-25.87-10.32-31.76-5.5-5.89-86.2-57.42-89.74-59.93-10.52-7.46-8.97-9.13-6.29-10.99Z"/>
</svg>