<?xml version="1.0" encoding="UTF-8"?>
<svg id="Layer_1" data-name="Layer 1" xmlns="http://www.w3.org/2000/svg" viewBox="0 0 494.66 438.8">
  <defs>
    <style>
      .cls-1 {
        fill: #6f728d;
      }
    </style>
  </defs>
  <g>
    <path class="cls-1" d="m247.55,0C273.95,0,351.53.01,408.43,2.94c56.9,2.93,86.23,29.33,86.23,80.95v265.15c0,90.34-34.63,89.75-80.95,89.75-19.36,0-166.16-.03-166.16-.03v-43.99s132.13.02,163.23.02c24.05,0,38.72-22.29,38.72-44.73V88.74c0-14.81-19.36-44.74-45.76-44.74-39.3,0-156.19-.02-156.19-.02V0Z"/>
    <path class="cls-1" d="m247.55,234.64c28.16,0,55.78-12.89,55.78-12.89l183.02-81.54-19.65-40.48s-143.43,65.11-176.86,79.19c-33.44,14.08-42.24,11.73-42.24,11.73l-.06,43.98Z"/>
    <path class="cls-1" d="m247.55,112.75c9.97,0,20.09-5.86,20.09-5.86L443.63,28.88l18.77,40.84-187.13,82.13c-1.03.45-14.08,6.16-27.72,6.16v-45.25Z"/>
  </g>
  <g>
    <path class="cls-1" d="m247.55,0c-26.4,0-104.42-.01-161.32,2.92C29.33,5.86,0,32.25,0,83.88c0,32.26,0,195.93,0,265.15,0,90.34,34.63,89.75,80.95,89.75,19.36,0,166.6,0,166.6,0v-43.99s-132.58,0-163.67,0c-24.05,0-38.72-22.29-38.72-44.73,0-21.41,0-243.15,0-261.34,0-14.81,19.36-44.74,45.76-44.74,39.3,0,156.63,0,156.63,0V0Z"/>
    <path class="cls-1" d="m247.55,234.64c-28.16,0-55.14-12.89-55.14-12.89L9.39,140.21l19.65-40.48s143.43,65.11,176.86,79.19c33.44,14.08,41.71,11.73,41.71,11.73l-.06,43.98Z"/>
    <path class="cls-1" d="m247.55,112.75c-9.97,0-19.94-5.87-19.94-5.87L51.62,28.87l-18.77,40.84,187.13,82.13c1.03.45,13.93,6.17,27.57,6.17v-45.25Z"/>
  </g>
  <polygon class="cls-1" points="36.38 135.31 244.27 214.22 462.4 135.31 462.4 408.45 32.85 404.66 36.38 135.31"/>
  <polygon class="cls-1" points="32.85 37.44 247.55 132.28 449.12 40.83 32.85 37.44"/>
</svg>