<?xml version="1.0" encoding="UTF-8"?>
<svg id="Layer_1" data-name="Layer 1" xmlns="http://www.w3.org/2000/svg" viewBox="0 0 391.57 496.85">
  <defs>
    <style>
      .cls-1 {
        fill: #6f728d;
      }
    </style>
  </defs>
  <g>
    <g>
      <path class="cls-1" d="m340.29,434.74c-.02-1.45-.56-2.84-1.51-3.94-3.56-4.09-10.68-12.28-14.25-16.37-1.12-1.28-1.64-2.97-1.49-4.67.77-8.46,3.32-15.04,8.1-23.3,1-1.73,2.76-2.88,4.75-3.08,4.77-.47,19.3,1.23,19.3,1.23,1.86-.18,3.53-1.2,4.55-2.76l1.54-2.35c.6-.91.95-1.95,1-3.04.9-19.61-4.46-50.86-17.06-74.61-.78-1.47-2.15-2.55-3.76-3l-.73-.21c-1.63-.46-3.38-.23-4.83.64,0,0-10.83,6.47-14.44,8.63-1.95,1.17-4.41,1.2-6.34,0-7.51-4.68-12.39-11.39-15.63-18.6-.71-1.58-.74-3.4-.05-4.99,2.24-5.22,6.73-15.66,8.97-20.88.43-1.01.59-2.11.45-3.2-.29-2.32-1.92-4.18-4.1-5.04-7.1-2.8-20.86-9.63-28.15-11.83-7.31-2.2-22.17-5.76-29.47-8.01-2.24-.69-4.67-.2-6.33,1.45-.78.77-1.34,1.74-1.62,2.8-1.45,5.49-4.34,16.48-5.78,21.98-.44,1.68-1.58,3.09-3.11,3.9-6.99,3.68-14.96,5.97-23.76,5.03-2.26-.24-4.18-1.78-5-3.9-1.52-3.92-4.55-11.77-6.06-15.69-.61-1.58-1.85-2.84-3.42-3.48-.18-.07-.53-.21-.7-.29-1.54-.63-3.29-.63-4.81.05-24.56,10.96-45.93,29.98-57.29,45.99-.63.89-.99,1.93-1.08,3.01-.06.7-.18,2.1-.24,2.8-.16,1.86.54,3.69,1.89,4.97,3.47,3.3,10.41,9.91,13.88,13.21,1.44,1.37,2.12,3.37,1.85,5.35-1.32,9.46-3.36,16.21-7.97,23.35-.92,1.43-2.38,2.44-4.04,2.76-5.33,1.03-20.36-1.54-25.69-.51-1.42.28-2.7,1.05-3.61,2.17-.19.23-.57.7-.75.93-.77.95-1.25,2.11-1.36,3.33-2.4,27.66,8.02,57.29,20.48,76.42.84,1.3,2.17,2.21,3.67,2.58.08.02.23.06.31.08,1.59.39,3.26.13,4.66-.71,3.52-2.14,12.07-6.52,15.59-8.66,2.17-1.32,4.94-1.18,6.94.39,7.52,5.89,11.28,10.31,15.26,17.78.88,1.65.97,3.62.23,5.34-2.21,5.15-6.63,15.44-8.85,20.59-.43,1-.59,2.09-.45,3.17,0,0,0,.03,0,.04.29,2.33,1.92,4.19,4.1,5.07,7.09,2.83,20.87,9.55,28.06,12.03,7.2,2.48,29.52,7.79,29.52,7.79,2.22.77,4.69.2,6.35-1.47l.03-.03c.77-.77,1.32-1.73,1.6-2.78l5.7-21.67c.48-1.81,1.76-3.31,3.47-4.07,7.73-3.43,13.42-4.6,22.97-4.61,2.54,0,4.81,1.59,5.71,3.97l5.84,15.4c.58,1.53,1.74,2.76,3.23,3.43l.29.13c1.41.63,3.02.73,4.48.23,21.6-7.41,42.86-22.37,57.99-45.65.67-1.02,1-2.24.98-3.46,0-.3-.01-.9-.02-1.2Zm-44.47-18.63c-7.77,13.57-10.76,12.93-21.93,16.32-.79.24-1.43.48-2.04.17-.03-.02-.09-.05-.12-.06-.64-.32-1.08-.75-1.69-1.48-1.48-1.79-8.16-12.75-9.48-14.66-.84-1.21-1.06-1.08-2.22-.9-4.38.69-26.79,5.79-30.58,8.53-.84.61-1.55,1.65-1.88,2.85-.58,2.12-.61,10.33-1.19,12.45-.19.7-.52,1.35-.93,1.89,0,0-.01.01-.01.02-.88,1.18-2.03,1.65-3.01,1.39-2.76-.73-7.98-1.5-11.1-2.58-3.12-1.07-12.13-4.01-14.75-5.13-.94-.4-1.42-1.8-1.38-3.27,0,0,0-.02,0-.02.02-.68.15-1.4.43-2.06.85-2.02,4.17-9.28,5.01-11.3.48-1.14.56-2.41.27-3.4-1.3-4.49-13.04-18.39-16.07-21.63-.8-.86-4.19-.65-5.58-.16-.58.2-2.74.61-5.6,1.5-.91.28-5.95,1.47-6.65,1.33-.03,0-.1-.02-.14-.03-.66-.13-1.03-.71-1.5-1.39-6.72-9.55-9.47-10.89-7.24-26.36.11-.79.44-1.56.86-2.23.1-.16.31-.49.41-.65.5-.79,1.12-1.42,1.81-1.65,4.42-1.44,13.64-2.92,18.06-4.35.81-.26,1.53-1.08,2.05-2.05,2.62-4.89,7.04-17.83,8.32-23.97.27-1.28.14-2.54-.47-3.29-2.76-3.41-8.96-9.66-11.72-13.07-.56-.7-1.02-1.59-1.19-2.93-.06-.45.28-1.53.45-1.95.37-.87.77-1.45,1.24-1.98,8.06-9.24,5.61-8.41,17.63-17.17.75-.54,1.54-.67,2.21-.38.08.03.23.1.3.13.67.3,3.4,2.92,4.08,3.63,2.96,3.07,6.13,6.22,8.82,8.79.95.91,3.4,1.78,4.42,1.77,3.97-.03,23.75-3.65,27.22-6.5.76-.63,1.39-1.61,1.7-2.72.76-2.7,2.2-8.13,2.96-10.83.2-.7.53-1.36.94-1.91.88-1.17,2.02-1.64,3-1.38,3.2.87,9.81,1.96,12.93,3.03s9,4.28,12.06,5.57c.94.4,1.55,1.47,1.52,2.93-.01.69-.16,1.41-.43,2.08-1.06,2.6-3.28,7.76-4.34,10.36-.44,1.07-.54,2.23-.33,3.19.97,4.38,14.74,19.14,17.48,22.01,1.02,1.08,2.57,1.16,3.73.54,3.32-1.76,10.51-3.15,14.38-4.03.96-.22,4.25-.22,4.96-.04.08.02.95.24,1.03.26.7.18,1.31.75,1.51,1.65,3.22,14.52,2.25,13.86,2.55,26.12.03,1.2-.67,2.99-.87,3.67-.09.31-.93,2.34-3.33,2.8-2.14.41-5.31,1.02-6.18,1.22-4.28.99-7.11,1.08-11.38,2.08-.94.22-1.81,1.13-2.39,2.3-2.78,5.63-7.25,18.55-8.2,24.02-.19,1.09-.13,2.17.35,2.88,2.6,3.85,8.96,10.7,11.55,14.55.41.6.5,1.49.41,2.41-.02.19-.06.58-.08.77-.08.78-.3,1.59-.7,2.28Z"/>
      <path class="cls-1" d="m227.93,323.34c-21.66,4.73-35.39,26.13-30.66,47.79,4.73,21.66,26.13,35.39,47.79,30.66s35.39-26.13,30.66-47.79c-4.73-21.66-26.13-35.39-47.79-30.66Zm12.31,58.91c-10.81,2.36-21.49-4.49-23.85-15.3-2.36-10.81,4.49-21.49,15.3-23.85,10.81-2.36,21.49,4.49,23.85,15.3,2.36,10.81-4.49,21.49-15.3,23.85Z"/>
    </g>
    <path class="cls-1" d="m119.15,442.01c38.6,0,40.04,53.5,0,53.5-30.27,0-45.16,0-72.55,0S0,477.74,0,448.91c0-28.83,0-362.43,0-393.66C0,24.02,18.26,0,44.2,0h228.21c11.53,0,21.46,3.68,31.71,14.89,14.96,16.37,73.51,97.53,80.24,107.14,6.73,9.61,7.21,13.45,7.21,22.58s0,108.27,0,122.21c0,32.35-53.81,30.75-53.81,0,0-30.75,0-95.13,0-102.82,0-7.69,0-11.05-3.36-15.37-3.36-4.32-65.34-84.08-71.11-87.92s-9.98-6.73-15.85-6.73H80.82c-13.45,0-27.55,12.17-27.55,28.51,0,14.41,0,314.05,0,329.43s-2.88,30.1,20.66,30.1h45.22Z"/>
    <path class="cls-1" d="m215.72,134.7c0,12.49.72,44.92,39.16,44.92h100.41v-47.32h-73.27c-11.77,0-17.54-10.09-17.54-18.98,0-8.89,0-74.47,0-74.47h-48.77v95.85Z"/>
    <path class="cls-1" d="m182.57,113.8c30.03,0,29.07,53.29,2.88,53.29-39.4,0-81.44,0-106.42,0-24.98,0-22.34-53.29.96-53.29h102.58Z"/>
  </g>
  <path class="cls-1" d="m121.98,195.41c30.03,0,29.07,53.29,2.88,53.29h-45.83c-24.98,0-22.34-53.29.96-53.29h41.98Z"/>
</svg>