<?xml version="1.0" encoding="UTF-8"?>
<svg id="Layer_2" data-name="Layer 2" xmlns="http://www.w3.org/2000/svg" viewBox="0 0 382.55 495.52">
  <defs>
    <style>
      .cls-1 {
        fill: #6f728d;
      }
    </style>
  </defs>
  <path class="cls-1" d="m112.48,417.28c36.44,0,37.8,50.51,0,50.51H44c-25.85,0-44-16.78-44-44V52.16C0,22.68,17.24,0,41.73,0h215.44c10.89,0,20.26,3.48,29.93,14.06,14.13,15.45,69.39,92.07,75.74,101.14,6.35,9.07,6.8,12.7,6.8,21.32v115.37c0,30.54-50.8,29.03-50.8,0v-97.06c0-7.26,0-10.43-3.17-14.51s-61.68-79.37-67.13-83c-5.44-3.63-9.42-6.35-14.97-6.35H76.29c-12.7,0-26,11.49-26,26.91,0,13.61,0,296.48,0,310.99s-2.72,28.41,19.5,28.41h42.69Z"/>
  <path class="cls-1" d="m203.65,127.16c0,11.79.68,42.41,36.97,42.41h94.79v-44.68h-69.17c-11.11,0-16.55-9.52-16.55-17.92V36.67h-46.04v90.49Z"/>
  <path class="cls-1" d="m172.35,107.43c28.35,0,27.44,50.31,2.72,50.31h-100.46c-23.59,0-21.09-50.31.91-50.31h96.84Z"/>
  <path class="cls-1" d="m187.61,170.7c-72.49,0-131.25,58.76-131.25,131.25s58.76,131.25,131.25,131.25,131.25-58.76,131.25-131.25-58.76-131.25-131.25-131.25Zm0,224.08c-49.76,0-90.1-40.34-90.1-90.1s40.34-90.1,90.1-90.1,90.1,40.34,90.1,90.1-40.34,90.1-90.1,90.1Z"/>
  <path class="cls-1" d="m251.73,398.39s37.08,38.21,42.41,43.54,12.93,3.4,16.33,0c3.4-3.4,26.99-27.21,29.48-29.71,2.49-2.49,5.44-6.35,0-10.43-5.44-4.08-62.24-51.03-62.24-51.03l23.3-26.31s53.68,39.46,70.69,55.11c17.01,15.65,10.66,41.27,3.63,49.89-7.03,8.62-46.94,46.26-56.47,54.88-9.52,8.62-31.98,21.77-50.35-3.63-18.37-25.4-53.75-63.5-53.75-63.5l36.97-18.82Z"/>
  <path class="cls-1" d="m132.89,324.46c-9.3-17.69-5.44-35.15,12.02-16.33,17.46,18.82,22.22,31.98,44.45,11.57,22.22-20.41,56.92-49.89,62.59-53.29s18.37-10.21,10.43,5.44c-7.94,15.65-57.38,76.2-64.98,82.32-7.59,6.12-20.29,28.12-43.2,0-22.9-28.12-21.32-29.71-21.32-29.71Z"/>
</svg>