<?xml version="1.0" encoding="UTF-8"?>
<svg id="Layer_1" data-name="Layer 1" xmlns="http://www.w3.org/2000/svg" viewBox="0 0 495.57 467.5">
  <defs>
    <style>
      .cls-1 {
        fill: #6f728d;
      }
    </style>
  </defs>
  <path class="cls-1" d="m229.11,421.46c29.33,0,28.83,44.97,2.51,44.97h-66.68c-8.52,0-23.06-6.8-23.06-26.14V29.28c0-16.21,11.03-29.28,23.06-29.28s286.01,1.31,301.05,1.31,29.58,21.44,29.58,35.56v179.35c0,39.74-42.02,30.56-41.86.78.1-18.82-.5-110.99-.5-129.81s-2.76-43.27-22.81-43.27h-229.61c-19.55,0-20.68,20.39-20.68,39.74v306.42c0,19.87-.67,31.37,13.16,31.37h35.85Z"/>
  <path class="cls-1" d="m115.62,0H23.06C7.02,0,1.31,11.5,1.31,24.05S0,184.92,0,193.31s25.35,28.92,30.36,33.63c5.01,4.71,21.14,17.01,27.19,22.45,11.93,10.72,19.21,16.25,20.21,24.62,1,8.37-1.16,174.64-1.16,174.64,0,23.01,43.21,27.19,43.21,0,0-38.17,1.31-441.33,1.31-442.89,0-2.94,1.5-5.75-5.51-5.75Zm-35.87,203.31c0,4.44-3.51,9.41-6.27,8.37-2.76-1.05-23.31-21.21-24.82-22.51-1.5-1.31-5.77-7.55-5.77-13.04V54.9c0-6.27,6.27-12.03,10.53-12.03h18.05c6.02,0,8.27,1.31,8.27,4.97v155.46Z"/>
  <g>
    <path class="cls-1" d="m442.68,427.76c.3-1.54.06-3.13-.66-4.51-2.7-5.15-8.11-15.44-10.81-20.59-.85-1.61-1-3.52-.47-5.28,2.65-8.77,6.69-15.13,13.36-22.76,1.39-1.59,3.44-2.41,5.49-2.16,4.94.61,19.29,5.75,19.29,5.75,1.92.24,3.84-.45,5.22-1.87l2.08-2.13c.8-.83,1.39-1.85,1.69-2.98,5.25-20.52,6.74-54.78-.78-82.79-.47-1.74-1.62-3.19-3.14-4.04l-.69-.39c-1.55-.86-3.37-1.02-5.04-.44,0,0-12.4,4.34-16.54,5.79-2.23.78-4.73.25-6.42-1.47-6.58-6.68-10.03-14.9-11.72-23.26-.37-1.84,0-3.76,1.05-5.29,3.43-5,10.28-15,13.71-20,.66-.97,1.06-2.1,1.16-3.28.22-2.52-1.02-4.86-3.04-6.27-6.58-4.6-19.01-14.99-25.91-19-6.92-4.02-21.19-11.21-28.09-15.27-2.12-1.24-4.69-1.29-6.74.07-.96.64-1.74,1.53-2.26,2.59-2.68,5.47-8.04,16.42-10.72,21.89-.82,1.67-2.28,2.91-4.02,3.41-7.9,2.28-16.48,2.85-25.19-.16-2.24-.77-3.84-2.84-4.2-5.27-.67-4.49-2.01-13.48-2.67-17.98-.27-1.81-1.24-3.43-2.69-4.46-.16-.12-.49-.35-.65-.46-1.43-1.02-3.19-1.42-4.88-1.05-27.31,5.91-53.17,21.09-68.23,35.39-.83.79-1.43,1.81-1.76,2.93-.22.73-.65,2.18-.86,2.9-.57,1.93-.27,4.02.81,5.69,2.79,4.29,8.36,12.88,11.14,17.17,1.16,1.79,1.41,4.06.69,6.08-3.43,9.69-6.99,16.36-13.24,22.84-1.25,1.3-2.95,2.03-4.71,1.99-5.62-.14-20.29-6.33-25.92-6.46-1.5-.04-2.97.48-4.14,1.46-.24.2-.73.61-.97.81-.99.83-1.73,1.95-2.11,3.21-8.55,28.68-4.55,62.4,3.84,85.5.57,1.57,1.71,2.83,3.15,3.57.07.04.22.11.29.15,1.52.78,3.28.89,4.88.32,4.04-1.45,13.67-4.11,17.72-5.55,2.49-.89,5.27-.11,6.95,2.01,6.31,7.96,9.15,13.5,11.53,22.31.53,1.95.18,4.05-.95,5.7-3.38,4.93-10.14,14.79-13.52,19.72-.66.96-1.06,2.08-1.16,3.25,0,.01,0,.03,0,.04-.23,2.53,1.02,4.87,3.03,6.3,6.55,4.63,19.03,14.91,25.78,19.19,6.75,4.28,28.19,15.05,28.19,15.05,2.08,1.32,4.71,1.29,6.76-.09l.03-.02c.95-.64,1.72-1.52,2.23-2.57l10.58-21.59c.88-1.8,2.52-3.09,4.42-3.5,8.59-1.84,14.61-1.76,24.29.42,2.58.58,4.52,2.79,4.91,5.51l2.51,17.63c.25,1.75,1.15,3.32,2.52,4.37l.26.2c1.29,1,2.89,1.47,4.49,1.28,23.52-2.85,48.38-13.76,68.87-34.87.9-.93,1.51-2.13,1.76-3.43.06-.32.18-.96.25-1.27Zm-40.94-29.95c-10.87,12.55-13.76,11.18-25.83,12.18-.85.07-1.56.17-2.1-.29-.03-.02-.08-.07-.11-.09-.57-.49-.93-1.04-1.38-1.95-1.1-2.23-5.45-15.36-6.37-17.68-.58-1.48-.83-1.39-2.05-1.46-4.59-.28-28.43-.07-32.87,1.96-.98.45-1.94,1.39-2.53,2.58-1.05,2.1-2.9,10.78-3.96,12.88-.35.69-.83,1.3-1.36,1.79,0,0-.01.01-.02.02-1.15,1.05-2.42,1.28-3.36.77-2.63-1.41-7.76-3.43-10.68-5.29-2.93-1.86-11.4-7.04-13.81-8.83-.86-.64-1.04-2.22-.68-3.77,0,0,0-.02,0-.03.17-.72.47-1.44.9-2.08,1.31-1.94,6.27-8.84,7.58-10.79.74-1.1,1.1-2.42,1.03-3.53-.32-5.05-9.15-22.45-11.5-26.57-.62-1.1-4.1-1.65-5.62-1.46-.64.08-2.91,0-6.01.29-.98.09-6.35.18-7.03-.13-.03-.01-.1-.04-.13-.06-.64-.29-.88-.99-1.21-1.81-4.69-11.64-7.18-13.69-1.5-29.53.29-.81.79-1.55,1.36-2.16.14-.15.42-.45.56-.59.68-.72,1.45-1.25,2.2-1.32,4.79-.5,14.47.06,19.26-.43.88-.09,1.78-.78,2.53-1.7,3.73-4.57,11.08-17.22,13.74-23.42.55-1.29.7-2.66.25-3.59-2.04-4.25-6.94-12.28-8.98-16.52-.42-.87-.68-1.91-.55-3.37.04-.49.62-1.56.89-1.96.56-.83,1.1-1.35,1.69-1.81,10.21-7.91,7.54-7.6,21.67-14.08.88-.4,1.71-.35,2.32.11.07.05.21.16.28.21.62.47,2.8,3.87,3.33,4.78,2.32,3.93,4.83,7.99,7,11.32.77,1.18,3.06,2.66,4.09,2.89,4.02.89,24.88,1.63,29.02-.59.91-.49,1.77-1.38,2.33-2.48,1.37-2.68,4.02-8.09,5.39-10.77.35-.69.83-1.31,1.37-1.8,1.15-1.04,2.41-1.27,3.35-.76,3.05,1.65,9.51,4.33,12.43,6.19,2.93,1.86,8.18,6.6,10.99,8.67.86.63,1.25,1.91.89,3.45-.17.72-.47,1.45-.9,2.1-1.65,2.5-5.04,7.45-6.69,9.95-.68,1.03-1.05,2.23-1.04,3.3.02,4.85,10.7,23.63,12.84,27.3.8,1.37,2.35,1.82,3.66,1.44,3.75-1.09,11.35-.9,15.46-.95,1.02-.01,4.35.75,5.04,1.11.08.04.91.47.99.51.67.35,1.16,1.1,1.16,2.1.05,16.09-.79,15.17-3.19,28.2-.24,1.27-1.34,3-1.69,3.68-.16.3-1.46,2.26-3.99,2.19-2.26-.06-5.61-.15-6.54-.14-4.55.06-7.44-.49-11.99-.43-1,.01-2.09.78-2.94,1.88-4.06,5.31-11.45,17.93-13.62,23.49-.43,1.11-.61,2.27-.28,3.13,1.78,4.67,6.71,13.37,8.49,18.04.28.73.18,1.69-.12,2.64-.06.2-.19.59-.25.79-.25.81-.66,1.61-1.21,2.25Z"/>
    <path class="cls-1" d="m353.47,284.08c-23,0-41.64,19.45-41.64,43.43s18.64,43.43,41.64,43.43,41.64-19.45,41.64-43.43-18.64-43.43-41.64-43.43Zm-.56,65.11c-11.48,0-20.78-9.7-20.78-21.67s9.3-21.67,20.78-21.67,20.78,9.7,20.78,21.67-9.3,21.67-20.78,21.67Z"/>
  </g>
</svg>