<?xml version="1.0" encoding="UTF-8"?>
<svg id="Layer_1" data-name="Layer 1" xmlns="http://www.w3.org/2000/svg" viewBox="0 0 497 497">
  <defs>
    <style>
      .cls-1 {
        fill: #6f728d;
      }
    </style>
  </defs>
  <path class="cls-1" d="m248.5,0C111.26,0,0,111.26,0,248.5s111.26,248.5,248.5,248.5,248.5-111.26,248.5-248.5S385.74,0,248.5,0Zm0,64.44c42.59,0,77.12,34.53,77.12,77.12s-34.53,77.12-77.12,77.12-77.12-34.53-77.12-77.12,34.53-77.12,77.12-77.12Zm75.07,364.64c-29.74,20.55-58.31,21.56-75.07,21.56s-45.33-1.01-75.07-21.56c-29.75-20.55-47.45-71.54-16.53-129.13,30.93-57.59,36.68-66.72,91.6-66.72s60.67,9.13,91.6,66.72c30.93,57.59,13.22,108.58-16.53,129.13Z"/>
</svg>